<svg aria-hidden="true" style="position: absolute; width: 0; height: 0; overflow: hidden;" version="1.1" xmlns="http://www.w3.org/2000/svg" xmlns:xlink="http://www.w3.org/1999/xlink">
<defs>
<symbol id="youtube" viewBox="0 0 50 32">
<path  d="M38.228 0h-28.208c-5.534 0-10.021 4.205-10.021 9.392v13.216c0 5.187 4.486 9.392 10.021 9.392h28.208c5.534 0 10.021-4.205 10.021-9.392v-13.216c0-5.187-4.486-9.392-10.021-9.392zM31.451 16.643l-13.194 5.898c-0.352 0.157-0.758-0.083-0.758-0.448v-12.164c0-0.37 0.417-0.61 0.769-0.443l13.194 6.266c0.392 0.186 0.385 0.714-0.012 0.891z"></path>
</symbol>
<symbol id="bicycle" viewBox="0 0 32 32">
<path  style="fill: var(--color2, #d4c17f)" d="M8 27.2h-7.467c-0.295 0-0.533 0.239-0.533 0.533s0.238 0.533 0.533 0.533h7.467c0.295 0 0.533-0.239 0.533-0.533s-0.238-0.533-0.533-0.533z"></path>
<path  style="fill: var(--color2, #d4c17f)" d="M6.4 26.133c3.529 0 6.4-2.871 6.4-6.4 0-1.767-0.705-3.412-1.984-4.633-0.212-0.203-0.551-0.195-0.754 0.018-0.203 0.213-0.195 0.551 0.018 0.754 1.066 1.018 1.654 2.388 1.654 3.861 0 2.941-2.393 5.333-5.333 5.333s-5.333-2.393-5.333-5.333c0-2.941 2.393-5.333 5.333-5.333 0.295 0 0.533-0.239 0.533-0.533s-0.238-0.533-0.533-0.533c-3.529 0-6.4 2.871-6.4 6.4s2.871 6.4 6.4 6.4z"></path>
<path  style="fill: var(--color2, #d4c17f)" d="M9.067 11.199h0.27l-3.081 7.481c-0.519 0.071-0.923 0.513-0.923 1.052 0 0.588 0.478 1.067 1.067 1.067s1.067-0.478 1.067-1.067c0-0.244-0.085-0.466-0.224-0.646l3.010-7.308 3.375 4.901c0.166 0.243 0.498 0.304 0.741 0.137s0.304-0.499 0.137-0.742l-3.358-4.875h1.119c0.882 0 1.6-0.718 1.6-1.6s-0.718-1.6-1.6-1.6h-3.2c-0.295 0-0.533 0.238-0.533 0.533v2.133c-0 0.295 0.238 0.533 0.533 0.533zM9.6 9.066h2.667c0.294 0 0.533 0.239 0.533 0.533s-0.239 0.533-0.533 0.533h-2.667v-1.067z"></path>
<path  style="fill: var(--color2, #d4c17f)" d="M25.067 13.866c0 0.294 0.238 0.533 0.533 0.533 2.941 0 5.333 2.392 5.333 5.333s-2.393 5.333-5.333 5.333-5.333-2.393-5.333-5.333c0-1.598 0.708-3.099 1.943-4.117 0.227-0.187 0.259-0.523 0.071-0.75s-0.523-0.26-0.751-0.072c-1.481 1.222-2.33 3.022-2.33 4.94 0 3.529 2.871 6.4 6.4 6.4s6.4-2.871 6.4-6.4c0-3.529-2.871-6.4-6.4-6.4-0.295 0-0.533 0.238-0.533 0.533z"></path>
<path  style="fill: var(--color2, #d4c17f)" d="M16.533 27.2h-5.333c-0.295 0-0.533 0.239-0.533 0.533s0.238 0.533 0.533 0.533h5.333c0.295 0 0.533-0.239 0.533-0.533s-0.238-0.533-0.533-0.533z"></path>
<path  style="fill: var(--color2, #d4c17f)" d="M16.533 17.142v-1.676c0.295 0 0.533-0.239 0.533-0.533s-0.238-0.533-0.533-0.533h-1.067c-0.295 0-0.533 0.238-0.533 0.533s0.238 0.533 0.533 0.533v1.676c-0.918 0.238-1.6 1.066-1.6 2.058s0.682 1.819 1.6 2.058v1.676c-0.295 0-0.533 0.238-0.533 0.533s0.238 0.533 0.533 0.533h1.067c0.295 0 0.533-0.239 0.533-0.533s-0.238-0.533-0.533-0.533v-1.676c0.918-0.239 1.6-1.067 1.6-2.058s-0.682-1.819-1.6-2.058zM16 20.266c-0.588 0-1.067-0.478-1.067-1.067s0.479-1.067 1.067-1.067c0.588 0 1.067 0.478 1.067 1.067s-0.478 1.067-1.067 1.067z"></path>
<path  style="fill: var(--color2, #d4c17f)" d="M24.778 19.061c-0.15 0.184-0.245 0.416-0.245 0.672 0 0.588 0.479 1.067 1.067 1.067s1.067-0.478 1.067-1.067c0-0.528-0.387-0.964-0.89-1.049l-2.407-6.418h3.807c0.638 0 1.010-0.51 1.079-0.962l0.533-2.667c0.031-0.157-0.009-0.319-0.11-0.443s-0.252-0.195-0.412-0.195h-4.8c-0.295 0-0.533 0.238-0.533 0.533s0.238 0.533 0.533 0.533h4.149l-0.407 2.041c-0.008 0.037-0.031 0.089-0.031 0.093h-4.207l-1.67-4.454c-0.001-0.002-0.003-0.003-0.003-0.005s-0.001-0.004-0.001-0.006l-1.067-2.667c-0.109-0.274-0.422-0.405-0.693-0.297-0.274 0.109-0.407 0.42-0.298 0.693l0.972 2.427-2.006 3.51c-0.147 0.256-0.058 0.581 0.198 0.728 0.083 0.047 0.174 0.070 0.264 0.070 0.186 0 0.365-0.096 0.463-0.269l1.57-2.747 1.283 3.422-4.065 4.572c-0.196 0.22-0.176 0.557 0.044 0.753 0.101 0.091 0.228 0.135 0.354 0.135 0.147 0 0.293-0.061 0.398-0.179l3.691-4.152 2.372 6.326z"></path>
<path  style="fill: var(--color2, #d4c17f)" d="M31.467 27.2h-8.533c-0.295 0-0.533 0.239-0.533 0.533s0.238 0.533 0.533 0.533h8.533c0.295 0 0.533-0.239 0.533-0.533s-0.238-0.533-0.533-0.533z"></path>
<path  style="fill: var(--color2, #d4c17f)" d="M20.8 27.2h-1.067c-0.295 0-0.533 0.239-0.533 0.533s0.238 0.533 0.533 0.533h1.067c0.295 0 0.533-0.239 0.533-0.533s-0.238-0.533-0.533-0.533z"></path>
</symbol>
<symbol id="building" viewBox="0 0 32 32">
<path  style="fill: var(--color2, #d4c17f)" d="M22.933 29.867h-14.933c-0.294 0-0.533 0.239-0.533 0.533v1.067c0 0.294 0.239 0.533 0.533 0.533s0.533-0.239 0.533-0.533v-0.533h14.4c0.294 0 0.533-0.239 0.533-0.533s-0.239-0.533-0.533-0.533z"></path>
<path  style="fill: var(--color2, #d4c17f)" d="M11.733 13.333c0 0.294 0.239 0.533 0.533 0.533h2.133c0.294 0 0.533-0.239 0.533-0.533v-3.2c0-0.294-0.239-0.533-0.533-0.533h-2.133c-0.294 0-0.533 0.239-0.533 0.533v3.2h-0zM12.8 10.667h1.067v2.133h-1.067v-2.133z"></path>
<path  style="fill: var(--color2, #d4c17f)" d="M6.933 6.4h-6.4c-0.294 0-0.533 0.239-0.533 0.533v10.667c0 0.294 0.239 0.533 0.533 0.533s0.533-0.239 0.533-0.533v-10.133h5.867c0.294 0 0.533-0.239 0.533-0.533s-0.239-0.533-0.533-0.533z"></path>
<path  style="fill: var(--color2, #d4c17f)" d="M25.6 26.133c0 0.294 0.239 0.533 0.533 0.533h2.133c0.294 0 0.533-0.239 0.533-0.533v-3.2c0-0.294-0.239-0.533-0.533-0.533h-2.133c-0.294 0-0.533 0.239-0.533 0.533v3.2zM26.667 23.467h1.067v2.133h-1.067v-2.133z"></path>
<path  style="fill: var(--color2, #d4c17f)" d="M2.667 19.2c-2.636 0-2.667 6.864-2.667 6.933 0 1.288 0.918 2.365 2.133 2.613v2.721c0 0.294 0.239 0.533 0.533 0.533s0.533-0.239 0.533-0.533v-2.721c1.215-0.248 2.133-1.325 2.133-2.613 0-0.069-0.030-6.933-2.667-6.933zM2.667 27.733c-0.882 0-1.6-0.718-1.6-1.6 0-2.657 0.714-5.867 1.6-5.867s1.6 3.21 1.6 5.867c0 0.882-0.718 1.6-1.6 1.6z"></path>
<path  style="fill: var(--color2, #d4c17f)" d="M5.867 16h-2.133c-0.294 0-0.533 0.239-0.533 0.533v1.067c0 0.294 0.239 0.533 0.533 0.533s0.533-0.239 0.533-0.533v-0.533h1.067v2.667c0 0.294 0.239 0.533 0.533 0.533s0.533-0.239 0.533-0.533v-3.2c0-0.294-0.239-0.533-0.533-0.533z"></path>
<path  style="fill: var(--color2, #d4c17f)" d="M26.133 13.867h2.133c0.294 0 0.533-0.239 0.533-0.533v-3.2c0-0.294-0.239-0.533-0.533-0.533h-2.133c-0.294 0-0.533 0.239-0.533 0.533v3.2c0 0.294 0.239 0.533 0.533 0.533zM26.667 10.667h1.067v2.133h-1.067v-2.133z"></path>
<path  style="fill: var(--color2, #d4c17f)" d="M5.867 9.6h-2.133c-0.294 0-0.533 0.239-0.533 0.533v3.2c0 0.294 0.239 0.533 0.533 0.533h2.133c0.294 0 0.533-0.239 0.533-0.533v-3.2c0-0.294-0.239-0.533-0.533-0.533zM5.333 12.8h-1.067v-2.133h1.067v2.133h-0z"></path>
<path  style="fill: var(--color2, #d4c17f)" d="M17.067 13.333c0 0.294 0.239 0.533 0.533 0.533h2.133c0.294 0 0.533-0.239 0.533-0.533v-3.2c0-0.294-0.239-0.533-0.533-0.533h-2.133c-0.294 0-0.533 0.239-0.533 0.533v3.2zM18.133 10.667h1.067v2.133h-1.067v-2.133z"></path>
<path  style="fill: var(--color2, #d4c17f)" d="M31.467 6.4h-6.4c-0.294 0-0.533 0.239-0.533 0.533s0.239 0.533 0.533 0.533h5.867v21.431c-0.167-0.060-0.345-0.098-0.533-0.098-0.092 0-0.184 0.008-0.274 0.024-0.368-0.663-1.068-1.091-1.859-1.091s-1.491 0.428-1.859 1.091c-0.090-0.016-0.182-0.024-0.274-0.024-0.882 0-1.6 0.718-1.6 1.6s0.718 1.6 1.6 1.6h4.267c0.882 0 1.6-0.718 1.6-1.6v-23.467c0-0.294-0.239-0.533-0.533-0.533zM30.4 30.933h-4.267c-0.294 0-0.533-0.239-0.533-0.533s0.239-0.533 0.533-0.533c0.102 0 0.199 0.029 0.289 0.087 0.146 0.094 0.329 0.111 0.49 0.046s0.28-0.205 0.319-0.374c0.113-0.486 0.539-0.826 1.036-0.826s0.923 0.34 1.036 0.826c0.039 0.169 0.158 0.309 0.319 0.374s0.343 0.048 0.49-0.046c0.347-0.224 0.822 0.050 0.822 0.446-0 0.294-0.239 0.533-0.533 0.533z"></path>
<path  style="fill: var(--color2, #d4c17f)" d="M17.6 7.467h2.133c0.294 0 0.533-0.239 0.533-0.533v-3.2c0-0.294-0.239-0.533-0.533-0.533h-2.133c-0.294 0-0.533 0.239-0.533 0.533v3.2c0 0.294 0.239 0.533 0.533 0.533zM18.133 4.267h1.067v2.133h-1.067v-2.133z"></path>
<path  style="fill: var(--color2, #d4c17f)" d="M17.067 19.733c0 0.294 0.239 0.533 0.533 0.533h2.133c0.294 0 0.533-0.239 0.533-0.533v-3.2c0-0.294-0.239-0.533-0.533-0.533h-2.133c-0.294 0-0.533 0.239-0.533 0.533v3.2zM18.133 17.067h1.067v2.133h-1.067v-2.133z"></path>
<path  style="fill: var(--color2, #d4c17f)" d="M12.267 7.467h2.133c0.294 0 0.533-0.239 0.533-0.533v-3.2c0-0.294-0.239-0.533-0.533-0.533h-2.133c-0.294 0-0.533 0.239-0.533 0.533v3.2c-0 0.294 0.239 0.533 0.533 0.533zM12.8 4.267h1.067v2.133h-1.067v-2.133z"></path>
<path  style="fill: var(--color2, #d4c17f)" d="M15.621 25.755c-0.096 0.101-0.155 0.24-0.155 0.379s0.059 0.277 0.155 0.379c0.101 0.096 0.24 0.155 0.379 0.155s0.277-0.059 0.379-0.155c0.096-0.101 0.155-0.24 0.155-0.379s-0.059-0.277-0.155-0.379c-0.203-0.197-0.555-0.197-0.757 0z"></path>
<path  style="fill: var(--color2, #d4c17f)" d="M11.733 19.733c0 0.294 0.239 0.533 0.533 0.533h2.133c0.294 0 0.533-0.239 0.533-0.533v-3.2c0-0.294-0.239-0.533-0.533-0.533h-2.133c-0.294 0-0.533 0.239-0.533 0.533v3.2h-0zM12.8 17.067h1.067v2.133h-1.067v-2.133z"></path>
<path  style="fill: var(--color2, #d4c17f)" d="M10.667 22.933c0 0.294 0.239 0.533 0.533 0.533h1.6v4.8c0 0.294 0.239 0.533 0.533 0.533s0.533-0.239 0.533-0.533v-4.8h4.267v4.8c0 0.294 0.239 0.533 0.533 0.533s0.533-0.239 0.533-0.533v-4.8h1.6c0.294 0 0.533-0.239 0.533-0.533s-0.239-0.533-0.533-0.533h-9.6c-0.294 0-0.533 0.239-0.533 0.533z"></path>
<path  style="fill: var(--color2, #d4c17f)" d="M25.6 19.733c0 0.294 0.239 0.533 0.533 0.533h2.133c0.294 0 0.533-0.239 0.533-0.533v-3.2c0-0.294-0.239-0.533-0.533-0.533h-2.133c-0.294 0-0.533 0.239-0.533 0.533v3.2zM26.667 17.067h1.067v2.133h-1.067v-2.133z"></path>
<path  style="fill: var(--color2, #d4c17f)" d="M22.933 0h-13.867c-0.294 0-0.533 0.239-0.533 0.533v27.733c0 0.294 0.239 0.533 0.533 0.533s0.533-0.239 0.533-0.533v-27.2h12.8v27.2c0 0.294 0.239 0.533 0.533 0.533s0.533-0.239 0.533-0.533v-27.733c0-0.294-0.239-0.533-0.533-0.533z"></path>
</symbol>
<symbol id="facebook" viewBox="0 0 35 32">
<path  d="M25.606 0.007l-4.427-0.007c-4.974 0-8.189 3.091-8.189 7.875v3.631h-4.452c-0.385 0-0.696 0.292-0.696 0.653v5.261c0 0.36 0.312 0.652 0.696 0.652h4.452v13.275c0 0.36 0.312 0.652 0.696 0.652h5.808c0.385 0 0.696-0.292 0.696-0.652v-13.275h5.205c0.385 0 0.696-0.292 0.696-0.652l0.002-5.261c0-0.173-0.073-0.339-0.204-0.461s-0.308-0.191-0.493-0.191h-5.207v-3.078c0-1.479 0.376-2.23 2.432-2.23l2.983-0.001c0.384 0 0.696-0.292 0.696-0.652v-4.885c0-0.36-0.311-0.652-0.695-0.652z"></path>
</symbol>
<symbol id="fountain" viewBox="0 0 32 32">
<path  style="fill: var(--color2, #d4c17f)" d="M21.356 1.849c0.073 0 0.147-0.015 0.218-0.047 0.153-0.068 0.307-0.133 0.464-0.192 0.276-0.105 0.414-0.413 0.309-0.688s-0.413-0.412-0.687-0.31c-0.177 0.067-0.351 0.14-0.522 0.217-0.269 0.121-0.389 0.436-0.268 0.705 0.089 0.198 0.283 0.315 0.487 0.315z"></path>
<path  style="fill: var(--color2, #d4c17f)" d="M21.333 13.415c0.295 0 0.533-0.238 0.533-0.533v-0.092c0-0.14 0.009-0.278 0.027-0.413 0.038-0.292-0.167-0.56-0.459-0.598-0.301-0.038-0.56 0.167-0.599 0.459-0.023 0.18-0.036 0.366-0.036 0.553v0.092c0 0.295 0.238 0.533 0.533 0.533z"></path>
<path  style="fill: var(--color2, #d4c17f)" d="M18.667 13.547c0.295 0 0.533-0.239 0.533-0.533v-0.542c0-0.294-0.238-0.533-0.533-0.533s-0.533 0.239-0.533 0.533v0.542c0 0.294 0.238 0.533 0.533 0.533z"></path>
<path  style="fill: var(--color2, #d4c17f)" d="M21.729 5.111c-0.172 0.094-0.34 0.196-0.501 0.305-0.245 0.164-0.311 0.495-0.147 0.74 0.103 0.154 0.272 0.236 0.444 0.236 0.102 0 0.205-0.029 0.296-0.090 0.137-0.091 0.278-0.177 0.423-0.257 0.258-0.142 0.352-0.467 0.21-0.724s-0.466-0.351-0.725-0.21z"></path>
<path  style="fill: var(--color2, #d4c17f)" d="M14.164 5.057c0.101 0.161 0.274 0.25 0.452 0.25 0.097 0 0.195-0.026 0.283-0.082 0.25-0.157 0.325-0.486 0.169-0.735-0.101-0.161-0.205-0.317-0.315-0.471-0.171-0.239-0.503-0.295-0.744-0.123s-0.295 0.505-0.124 0.744c0.097 0.136 0.191 0.275 0.28 0.417z"></path>
<path  style="fill: var(--color2, #d4c17f)" d="M23.915 1.129c0.022 0 0.045-0.002 0.067-0.004 0.165-0.021 0.332-0.037 0.5-0.049 0.294-0.020 0.516-0.274 0.497-0.567s-0.277-0.516-0.567-0.497c-0.19 0.012-0.378 0.031-0.563 0.054-0.292 0.037-0.5 0.303-0.462 0.596 0.034 0.269 0.263 0.467 0.528 0.467z"></path>
<path  style="fill: var(--color2, #d4c17f)" d="M21.938 9.889c-0.2 0.216-0.188 0.554 0.028 0.754 0.104 0.095 0.233 0.142 0.363 0.142 0.143 0 0.286-0.057 0.391-0.171 0.111-0.119 0.233-0.233 0.363-0.336 0.231-0.183 0.269-0.519 0.086-0.749s-0.519-0.27-0.749-0.086c-0.172 0.137-0.334 0.287-0.482 0.446z"></path>
<path  style="fill: var(--color2, #d4c17f)" d="M17.101 5.225c0.088 0.055 0.186 0.082 0.283 0.082 0.178 0 0.351-0.089 0.452-0.25 0.089-0.142 0.182-0.281 0.28-0.417 0.171-0.239 0.116-0.572-0.124-0.744s-0.573-0.116-0.744 0.123c-0.11 0.154-0.215 0.31-0.315 0.471-0.157 0.249-0.081 0.578 0.168 0.735z"></path>
<path  style="fill: var(--color2, #d4c17f)" d="M21.333 15.99c0.295 0 0.533-0.239 0.533-0.533v-0.267c0-0.294-0.238-0.533-0.533-0.533s-0.533 0.239-0.533 0.533v0.267c0 0.294 0.238 0.533 0.533 0.533z"></path>
<path  style="fill: var(--color2, #d4c17f)" d="M18.655 10.836c0.025 0.004 0.049 0.005 0.073 0.005 0.262 0 0.492-0.194 0.528-0.462 0.022-0.164 0.051-0.326 0.087-0.486 0.066-0.287-0.115-0.573-0.402-0.638s-0.573 0.115-0.638 0.402c-0.043 0.19-0.078 0.383-0.105 0.579-0.039 0.292 0.165 0.561 0.457 0.6z"></path>
<path  style="fill: var(--color2, #d4c17f)" d="M15.025 6.872c0.053 0.158 0.101 0.317 0.146 0.479 0.065 0.237 0.28 0.394 0.514 0.394 0.046 0 0.093-0.006 0.14-0.019 0.066-0.018 0.124-0.050 0.175-0.087 0.052 0.038 0.109 0.070 0.175 0.087 0.047 0.013 0.094 0.019 0.14 0.019 0.234 0 0.45-0.156 0.514-0.394 0.044-0.162 0.092-0.322 0.146-0.479 0.095-0.279-0.054-0.582-0.333-0.677-0.256-0.087-0.526 0.038-0.643 0.275-0.117-0.237-0.387-0.362-0.643-0.275-0.279 0.095-0.428 0.398-0.333 0.677z"></path>
<path  style="fill: var(--color2, #d4c17f)" d="M19.114 3.283c0.124 0 0.249-0.043 0.35-0.131 0.126-0.11 0.256-0.217 0.388-0.318 0.234-0.18 0.277-0.514 0.098-0.748s-0.515-0.278-0.748-0.098c-0.15 0.115-0.296 0.235-0.438 0.359-0.222 0.193-0.246 0.53-0.052 0.753 0.105 0.121 0.253 0.183 0.402 0.183z"></path>
<path  style="fill: var(--color2, #d4c17f)" d="M19.529 7.017c-0.117 0.156-0.228 0.317-0.332 0.482-0.157 0.249-0.082 0.579 0.167 0.736 0.089 0.055 0.186 0.082 0.284 0.082 0.177 0 0.35-0.088 0.452-0.249 0.089-0.14 0.182-0.277 0.282-0.409 0.177-0.235 0.13-0.57-0.105-0.747s-0.57-0.129-0.747 0.105z"></path>
<path  style="fill: var(--color2, #d4c17f)" d="M24.521 4.278c-0.197 0.015-0.391 0.038-0.583 0.070-0.291 0.048-0.487 0.323-0.439 0.613 0.043 0.261 0.268 0.446 0.525 0.446 0.029 0 0.058-0.002 0.087-0.007 0.163-0.027 0.326-0.046 0.492-0.059 0.294-0.023 0.514-0.279 0.491-0.573s-0.273-0.515-0.573-0.49z"></path>
<path  style="fill: var(--color2, #d4c17f)" d="M26.494 1.168c0.166 0.027 0.331 0.058 0.494 0.094 0.039 0.009 0.077 0.012 0.115 0.012 0.245 0 0.466-0.17 0.521-0.419 0.063-0.288-0.119-0.572-0.407-0.635-0.183-0.041-0.368-0.075-0.555-0.105-0.291-0.048-0.564 0.152-0.61 0.443s0.151 0.564 0.443 0.61z"></path>
<path  style="fill: var(--color2, #d4c17f)" d="M27.407 4.661c-0.184-0.066-0.371-0.124-0.561-0.174-0.283-0.074-0.576 0.094-0.652 0.379-0.075 0.285 0.094 0.577 0.379 0.652 0.161 0.042 0.318 0.091 0.473 0.147 0.060 0.021 0.12 0.031 0.18 0.031 0.219 0 0.424-0.136 0.502-0.354 0.1-0.277-0.045-0.583-0.322-0.682z"></path>
<path  style="fill: var(--color2, #d4c17f)" d="M24.85 8.528c-0.294 0.015-0.521 0.265-0.506 0.559s0.245 0.518 0.559 0.506c0.164-0.008 0.333-0.003 0.495 0.013 0.019 0.002 0.037 0.003 0.056 0.003 0.27 0 0.501-0.204 0.53-0.478 0.030-0.293-0.183-0.555-0.476-0.586-0.216-0.022-0.439-0.029-0.657-0.017z"></path>
<path  style="fill: var(--color2, #d4c17f)" d="M31.073 3.549c0.105 0.115 0.25 0.174 0.394 0.174 0.129 0 0.257-0.046 0.359-0.139 0.218-0.198 0.233-0.536 0.035-0.754-0.064-0.070-0.129-0.139-0.195-0.206-0.207-0.211-0.544-0.213-0.754-0.007s-0.214 0.543-0.009 0.754c0.058 0.058 0.114 0.118 0.169 0.178z"></path>
<path  style="fill: var(--color2, #d4c17f)" d="M22.933 20.256h-6.4c-0.295 0-0.533 0.239-0.533 0.533s0.238 0.533 0.533 0.533h6.4c1.495 0 2.667-1.171 2.667-2.667v-1.067c0-0.294-0.238-0.533-0.533-0.533h-18.133c-0.295 0-0.533 0.239-0.533 0.533v1.067c0 1.495 1.171 2.667 2.667 2.667h4.8v2.667c0 0.294 0.238 0.533 0.533 0.533s0.533-0.239 0.533-0.533v-3.2c0-0.294-0.238-0.533-0.533-0.533h-5.333c-0.898 0-1.6-0.703-1.6-1.6v-0.533h17.067v0.533c-0 0.897-0.703 1.6-1.6 1.6z"></path>
<path  style="fill: var(--color2, #d4c17f)" d="M28.259 12.561c0.005 0.075 0.008 0.152 0.008 0.229 0 0.294 0.238 0.533 0.533 0.533s0.533-0.239 0.533-0.533c0-0.102-0.004-0.204-0.011-0.305-0.021-0.293-0.27-0.515-0.57-0.494-0.294 0.021-0.515 0.276-0.494 0.57z"></path>
<path  style="fill: var(--color2, #d4c17f)" d="M27.132 9.633c-0.195 0.221-0.173 0.558 0.047 0.753 0.124 0.109 0.239 0.228 0.344 0.354 0.106 0.127 0.258 0.192 0.411 0.192 0.12 0 0.241-0.041 0.341-0.123 0.226-0.189 0.257-0.525 0.068-0.751-0.139-0.167-0.294-0.326-0.459-0.471-0.22-0.194-0.557-0.174-0.753 0.047z"></path>
<path  style="fill: var(--color2, #d4c17f)" d="M16.533 12.226c0-0.294-0.238-0.533-0.533-0.533s-0.533 0.239-0.533 0.533v0.593c0 0.294 0.238 0.533 0.533 0.533s0.533-0.239 0.533-0.533v-0.593z"></path>
<path  style="fill: var(--color2, #d4c17f)" d="M16 14.656c-0.295 0-0.533 0.239-0.533 0.533v0.267c0 0.294 0.238 0.533 0.533 0.533s0.533-0.239 0.533-0.533v-0.267c0-0.294-0.238-0.533-0.533-0.533z"></path>
<path  style="fill: var(--color2, #d4c17f)" d="M18.133 15.456c0 0.294 0.238 0.533 0.533 0.533s0.533-0.239 0.533-0.533v-0.267c0-0.294-0.238-0.533-0.533-0.533s-0.533 0.239-0.533 0.533v0.267z"></path>
<path  style="fill: var(--color2, #d4c17f)" d="M16.533 9.59c0-0.084 0.001-0.167 0.004-0.251 0.006-0.228-0.133-0.423-0.332-0.505-0.020-0.009-0.043-0.009-0.065-0.015-0.040-0.011-0.078-0.027-0.121-0.028-0.005-0.001-0.010-0.001-0.016-0.001-0.001 0-0.002 0.001-0.003 0.001s-0.002-0.001-0.003-0.001c-0.006 0-0.011 0-0.016 0.001-0.043 0.001-0.082 0.017-0.121 0.028-0.021 0.006-0.045 0.006-0.065 0.015-0.199 0.082-0.339 0.277-0.332 0.505 0.003 0.084 0.004 0.167 0.004 0.251v0.267c0 0.294 0.238 0.533 0.533 0.533s0.533-0.239 0.533-0.533v-0.267z"></path>
<path  style="fill: var(--color2, #d4c17f)" d="M12.8 15.456c0 0.294 0.238 0.533 0.533 0.533s0.533-0.239 0.533-0.533v-0.267c0-0.294-0.238-0.533-0.533-0.533s-0.533 0.239-0.533 0.533v0.267z"></path>
<path  style="fill: var(--color2, #d4c17f)" d="M13.333 13.547c0.295 0 0.533-0.239 0.533-0.533v-0.542c0-0.294-0.238-0.533-0.533-0.533s-0.533 0.239-0.533 0.533v0.542c0 0.294 0.238 0.533 0.533 0.533z"></path>
<path  style="fill: var(--color2, #d4c17f)" d="M11.2 15.456v-0.267c0-0.294-0.238-0.533-0.533-0.533s-0.533 0.239-0.533 0.533v0.267c0 0.294 0.238 0.533 0.533 0.533s0.533-0.239 0.533-0.533z"></path>
<path  style="fill: var(--color2, #d4c17f)" d="M3.725 10.809c0.1 0.083 0.22 0.123 0.341 0.123 0.153 0 0.305-0.065 0.411-0.192 0.105-0.126 0.22-0.245 0.344-0.354 0.221-0.195 0.242-0.532 0.047-0.753s-0.531-0.243-0.753-0.048c-0.165 0.145-0.32 0.304-0.459 0.472-0.188 0.227-0.157 0.563 0.069 0.751z"></path>
<path  style="fill: var(--color2, #d4c17f)" d="M29.333 25.59h-11.2v-2.667c0-0.294-0.238-0.533-0.533-0.533s-0.533 0.239-0.533 0.533v3.2c0 0.294 0.238 0.533 0.533 0.533h11.2v2.667c0 0.882-0.718 1.6-1.6 1.6h-22.4c-0.882 0-1.6-0.718-1.6-1.6v-2.667h12.311c0.295 0 0.533-0.239 0.533-0.533s-0.238-0.533-0.533-0.533h-12.844c-0.295 0-0.533 0.239-0.533 0.533v3.2c0 1.47 1.196 2.667 2.667 2.667h22.4c1.47 0 2.667-1.196 2.667-2.667v-3.2c-0-0.294-0.238-0.533-0.533-0.533z"></path>
<path  style="fill: var(--color2, #d4c17f)" d="M12.8 28.256v1.067c0 0.294 0.238 0.533 0.533 0.533s0.533-0.239 0.533-0.533v-1.067c0-0.294-0.238-0.533-0.533-0.533s-0.533 0.239-0.533 0.533z"></path>
<path  style="fill: var(--color2, #d4c17f)" d="M0.557 10.39c-0.006-0.001-0.013-0.001-0.019-0.001-0.285 0-0.523 0.227-0.532 0.515-0.004 0.095-0.006 0.19-0.006 0.285 0 0.294 0.238 0.533 0.533 0.533s0.533-0.239 0.533-0.533c0-0.083 0.002-0.165 0.005-0.248 0.010-0.294-0.22-0.541-0.514-0.551z"></path>
<path  style="fill: var(--color2, #d4c17f)" d="M2.861 6.966c0.119-0.115 0.244-0.225 0.372-0.33 0.228-0.187 0.262-0.523 0.076-0.75s-0.522-0.263-0.75-0.076c-0.151 0.124-0.298 0.253-0.437 0.389-0.212 0.204-0.218 0.542-0.014 0.754 0.105 0.108 0.244 0.163 0.384 0.163 0.133-0 0.267-0.050 0.37-0.15z"></path>
<path  style="fill: var(--color2, #d4c17f)" d="M1.451 7.841c-0.263-0.131-0.585-0.026-0.716 0.238-0.087 0.174-0.169 0.353-0.241 0.534-0.109 0.274 0.024 0.584 0.297 0.693 0.065 0.026 0.132 0.038 0.198 0.038 0.212 0 0.412-0.127 0.495-0.335 0.061-0.154 0.13-0.305 0.204-0.453 0.132-0.263 0.026-0.583-0.237-0.716z"></path>
<path  style="fill: var(--color2, #d4c17f)" d="M2.412 2.225c0.090 0 0.182-0.023 0.266-0.071 0.145-0.083 0.291-0.162 0.441-0.235 0.264-0.13 0.373-0.45 0.243-0.714s-0.451-0.373-0.714-0.243c-0.171 0.084-0.338 0.173-0.502 0.267-0.255 0.147-0.343 0.473-0.196 0.729 0.099 0.171 0.278 0.267 0.462 0.267z"></path>
<path  style="fill: var(--color2, #d4c17f)" d="M7.467 28.256v1.067c0 0.294 0.238 0.533 0.533 0.533s0.533-0.239 0.533-0.533v-1.067c0-0.294-0.238-0.533-0.533-0.533s-0.533 0.239-0.533 0.533z"></path>
<path  style="fill: var(--color2, #d4c17f)" d="M31.208 9.307c0.273-0.109 0.406-0.419 0.297-0.693-0.073-0.182-0.154-0.361-0.241-0.534-0.132-0.263-0.452-0.369-0.716-0.238-0.263 0.132-0.37 0.452-0.237 0.716 0.074 0.148 0.142 0.299 0.204 0.453 0.083 0.209 0.284 0.335 0.495 0.335 0.067-0 0.133-0.012 0.198-0.038z"></path>
<path  style="fill: var(--color2, #d4c17f)" d="M31.994 10.904c-0.010-0.295-0.271-0.531-0.551-0.514-0.294 0.010-0.524 0.257-0.514 0.551 0.003 0.083 0.005 0.165 0.005 0.248 0 0.294 0.238 0.533 0.533 0.533s0.533-0.239 0.533-0.533c0-0.095-0.002-0.19-0.006-0.285z"></path>
<path  style="fill: var(--color2, #d4c17f)" d="M29.854 1.23c-0.164-0.094-0.331-0.183-0.502-0.267-0.262-0.129-0.584-0.021-0.714 0.243s-0.021 0.584 0.243 0.714c0.15 0.073 0.297 0.151 0.441 0.235 0.084 0.048 0.176 0.071 0.266 0.071 0.185 0 0.364-0.096 0.463-0.267 0.147-0.256 0.059-0.581-0.196-0.729z"></path>
<path  style="fill: var(--color2, #d4c17f)" d="M24.533 29.323v-1.067c0-0.294-0.238-0.533-0.533-0.533s-0.533 0.239-0.533 0.533v1.067c0 0.294 0.238 0.533 0.533 0.533s0.533-0.239 0.533-0.533z"></path>
<path  style="fill: var(--color2, #d4c17f)" d="M19.2 29.323v-1.067c0-0.294-0.238-0.533-0.533-0.533s-0.533 0.239-0.533 0.533v1.067c0 0.294 0.238 0.533 0.533 0.533s0.533-0.239 0.533-0.533z"></path>
<path  style="fill: var(--color2, #d4c17f)" d="M29.442 5.81c-0.229-0.187-0.565-0.152-0.75 0.076-0.187 0.228-0.153 0.564 0.075 0.75 0.129 0.105 0.253 0.214 0.372 0.33 0.103 0.1 0.237 0.15 0.37 0.15 0.14 0 0.279-0.054 0.384-0.163 0.204-0.212 0.198-0.55-0.014-0.754-0.14-0.135-0.286-0.265-0.437-0.389z"></path>
<path  style="fill: var(--color2, #d4c17f)" d="M3.248 11.991c-0.305-0.020-0.549 0.201-0.57 0.494-0.007 0.101-0.011 0.202-0.011 0.305 0 0.294 0.238 0.533 0.533 0.533s0.533-0.239 0.533-0.533c0-0.077 0.003-0.154 0.008-0.229 0.021-0.294-0.2-0.549-0.494-0.57z"></path>
<path  style="fill: var(--color2, #d4c17f)" d="M10.565 11.778c-0.291 0.038-0.497 0.306-0.459 0.598 0.018 0.135 0.027 0.273 0.027 0.413v0.092c0 0.295 0.238 0.533 0.533 0.533s0.533-0.238 0.533-0.533v-0.092c0-0.186-0.012-0.372-0.036-0.553-0.039-0.292-0.301-0.498-0.599-0.459z"></path>
<path  style="fill: var(--color2, #d4c17f)" d="M9.963 1.61c0.157 0.059 0.311 0.124 0.464 0.192 0.071 0.032 0.145 0.047 0.218 0.047 0.204 0 0.398-0.117 0.487-0.315 0.121-0.269 0.001-0.585-0.268-0.705-0.171-0.077-0.346-0.149-0.522-0.217-0.274-0.102-0.583 0.034-0.687 0.31s0.034 0.583 0.309 0.688z"></path>
<path  style="fill: var(--color2, #d4c17f)" d="M9.756 6.045c0.145 0.080 0.286 0.166 0.423 0.257 0.091 0.061 0.194 0.090 0.296 0.090 0.172 0 0.341-0.083 0.444-0.236 0.164-0.245 0.098-0.576-0.147-0.74-0.162-0.108-0.33-0.21-0.501-0.305-0.259-0.141-0.582-0.049-0.725 0.21s-0.047 0.582 0.21 0.724z"></path>
<path  style="fill: var(--color2, #d4c17f)" d="M0.533 3.723c0.145 0 0.289-0.059 0.394-0.174 0.055-0.060 0.111-0.12 0.169-0.178 0.205-0.211 0.202-0.548-0.009-0.754-0.21-0.206-0.547-0.202-0.754 0.007-0.066 0.067-0.131 0.136-0.195 0.206-0.198 0.218-0.183 0.555 0.035 0.754 0.102 0.093 0.231 0.139 0.36 0.139z"></path>
<path  style="fill: var(--color2, #d4c17f)" d="M8.917 10.278c0.13 0.103 0.252 0.217 0.363 0.336 0.106 0.114 0.248 0.171 0.391 0.171 0.13 0 0.26-0.047 0.363-0.142 0.216-0.2 0.228-0.538 0.028-0.754-0.148-0.159-0.31-0.309-0.482-0.446-0.232-0.183-0.567-0.145-0.749 0.086-0.183 0.23-0.145 0.566 0.086 0.749z"></path>
<path  style="fill: var(--color2, #d4c17f)" d="M11.901 8.067c0.101 0.161 0.275 0.249 0.452 0.249 0.098 0 0.195-0.027 0.284-0.082 0.249-0.157 0.324-0.487 0.167-0.736-0.105-0.165-0.216-0.326-0.332-0.482-0.178-0.234-0.511-0.283-0.747-0.105s-0.282 0.512-0.105 0.747c0.1 0.132 0.194 0.268 0.282 0.409z"></path>
<path  style="fill: var(--color2, #d4c17f)" d="M12.148 2.834c0.132 0.102 0.262 0.209 0.388 0.318 0.101 0.088 0.226 0.131 0.35 0.131 0.149 0 0.297-0.062 0.402-0.183 0.194-0.222 0.17-0.559-0.052-0.753-0.142-0.124-0.288-0.244-0.438-0.359-0.233-0.18-0.567-0.136-0.748 0.098-0.179 0.234-0.136 0.568 0.098 0.748z"></path>
<path  style="fill: var(--color2, #d4c17f)" d="M4.897 1.274c0.038 0 0.076-0.004 0.114-0.012 0.164-0.036 0.329-0.067 0.495-0.094 0.291-0.046 0.489-0.319 0.443-0.61s-0.318-0.491-0.61-0.443c-0.187 0.030-0.372 0.065-0.555 0.105-0.288 0.063-0.47 0.347-0.407 0.635 0.055 0.249 0.275 0.419 0.521 0.419z"></path>
<path  style="fill: var(--color2, #d4c17f)" d="M7.517 1.076c0.169 0.012 0.335 0.028 0.5 0.049 0.022 0.003 0.045 0.004 0.067 0.004 0.265 0 0.495-0.197 0.528-0.467 0.037-0.292-0.17-0.559-0.462-0.596-0.186-0.023-0.373-0.042-0.563-0.054-0.287-0.021-0.549 0.203-0.568 0.497s0.203 0.548 0.497 0.567z"></path>
<path  style="fill: var(--color2, #d4c17f)" d="M13.058 9.256c-0.287 0.065-0.468 0.35-0.403 0.638 0.037 0.16 0.066 0.322 0.088 0.486 0.037 0.268 0.266 0.462 0.529 0.462 0.024 0 0.048-0.002 0.072-0.005 0.292-0.039 0.497-0.308 0.457-0.6-0.027-0.195-0.062-0.388-0.105-0.579-0.065-0.287-0.352-0.467-0.638-0.402z"></path>
<path  style="fill: var(--color2, #d4c17f)" d="M4.773 5.697c0.060 0 0.121-0.010 0.18-0.031 0.155-0.056 0.313-0.105 0.473-0.147 0.285-0.076 0.454-0.367 0.379-0.652s-0.368-0.453-0.652-0.379c-0.189 0.050-0.377 0.109-0.561 0.174-0.277 0.099-0.421 0.405-0.322 0.682 0.078 0.218 0.283 0.354 0.502 0.354z"></path>
<path  style="fill: var(--color2, #d4c17f)" d="M7.397 5.341c0.166 0.013 0.33 0.033 0.492 0.059 0.029 0.005 0.058 0.007 0.087 0.007 0.257 0 0.483-0.185 0.525-0.446 0.048-0.291-0.149-0.565-0.439-0.613-0.191-0.031-0.386-0.055-0.583-0.070-0.29-0.026-0.55 0.196-0.573 0.49s0.197 0.55 0.491 0.573z"></path>
<path  style="fill: var(--color2, #d4c17f)" d="M6.547 9.609c0.018 0 0.037-0.001 0.055-0.003 0.162-0.017 0.331-0.021 0.495-0.013 0.307 0.014 0.545-0.212 0.559-0.506s-0.212-0.544-0.506-0.559c-0.218-0.012-0.442-0.005-0.657 0.017-0.293 0.030-0.506 0.292-0.476 0.586 0.029 0.274 0.26 0.478 0.53 0.478z"></path>
</symbol>
<symbol id="instagram" viewBox="0 0 37 32">
<path   d="M24.604 0h-12.803c-5.892 0-10.669 4.478-10.669 10v12c0 5.522 4.778 10 10.669 10h12.803c5.892 0 10.669-4.478 10.669-10v-12c0-5.522-4.778-10-10.669-10zM32.073 22c0 3.86-3.35 7-7.469 7h-12.803c-4.118 0-7.469-3.14-7.469-7v-12c0-3.86 3.35-7 7.469-7h12.803c4.118 0 7.469 3.14 7.469 7v12z"></path>
<path   d="M18.202 8c-4.714 0-8.536 3.582-8.536 8s3.822 8 8.536 8c4.714 0 8.536-3.582 8.536-8s-3.822-8-8.536-8zM18.202 21c-2.94 0-5.335-2.244-5.335-5 0-2.758 2.394-5 5.335-5s5.335 2.242 5.335 5c0 2.756-2.394 5-5.335 5z"></path>
<path   d="M27.378 8.466c0.628 0 1.137-0.477 1.137-1.066s-0.509-1.066-1.137-1.066c-0.628 0-1.137 0.477-1.137 1.066s0.509 1.066 1.137 1.066z"></path>
</symbol>
<symbol id="logo" viewBox="0 0 161 32">
<path  style="fill: var(--color1, #fff)" d="M0.543 30.769v-30.288h3.764v26.567h12.505v3.721h-16.269zM19.236 24.365v-10.688c0-1.356 0.606-2.683 1.817-3.981 1.5-1.558 3.375-2.337 5.625-2.337v3.505c-1.702 0-2.885 0.707-3.548 2.12-0.202 0.433-0.303 0.865-0.303 1.298v9.519c0 1.067 0.49 1.976 1.471 2.726 0.692 0.519 1.486 0.779 2.38 0.779v3.505c-2.74 0-4.861-1.111-6.361-3.332-0.721-1.096-1.082-2.135-1.082-3.115zM28.538 30.813v-3.505c1.529 0 2.625-0.692 3.288-2.077 0.231-0.462 0.346-0.909 0.346-1.341v-9.606c0-1.183-0.505-2.12-1.514-2.813-0.635-0.404-1.356-0.606-2.164-0.606v-3.505c2.654 0 4.702 1.082 6.144 3.245 0.721 1.067 1.082 2.091 1.082 3.072v10.688c0 1.413-0.606 2.784-1.817 4.111-1.414 1.529-3.202 2.308-5.365 2.337zM38.361 12.813v-3.548h2.856v-2.51c0-1.615 0.534-3.087 1.601-4.413 1.183-1.385 2.712-2.091 4.586-2.12h1.601l-0.822 3.505h-0.822c-1.644 0.087-2.481 1.096-2.51 3.029v2.553l2.942-0.043v3.548h-2.942v17.957h-3.635v-17.957h-2.856zM50.216 11.125v-3.505h2.856v-7.486h3.678v7.486h2.769v3.548h-2.769v12.418c0 2.048 0.837 3.187 2.51 3.418 0.317 0.058 0.635 0.087 0.952 0.087h0.606l0.822 3.678h-1.558c-3.548-0.029-5.726-1.356-6.534-3.981-0.288-0.981-0.433-2.192-0.433-3.635l-0.043-12.029h-2.856zM63.587 30.769v-30.288h3.764v13.197h3.894v3.678h-3.894v13.413h-3.764zM73.409 17.356v-3.678h3.851v-13.197h3.808v30.288h-3.808v-13.413h-3.851zM84.442 24.365v-10.688c0-1.356 0.606-2.683 1.817-3.981 1.5-1.558 3.375-2.337 5.625-2.337v3.505c-1.702 0-2.885 0.707-3.548 2.12-0.202 0.433-0.303 0.865-0.303 1.298v9.519c0 1.067 0.49 1.976 1.471 2.726 0.692 0.519 1.486 0.779 2.38 0.779v3.505c-2.74 0-4.861-1.111-6.361-3.332-0.721-1.096-1.082-2.135-1.082-3.115zM93.745 30.813v-3.505c1.529 0 2.625-0.692 3.288-2.077 0.231-0.462 0.346-0.909 0.346-1.341v-9.606c0-1.183-0.505-2.12-1.514-2.813-0.635-0.404-1.356-0.606-2.163-0.606v-3.505c2.654 0 4.702 1.082 6.144 3.245 0.721 1.067 1.082 2.091 1.082 3.072v10.688c0 1.413-0.606 2.784-1.817 4.111-1.413 1.529-3.202 2.308-5.365 2.337zM104.216 24.538v-17.135h3.678v16.702c0 1.039 0.519 1.904 1.558 2.596 0.692 0.433 1.457 0.649 2.293 0.649v3.635c-2.769 0-4.904-1.082-6.404-3.245-0.75-1.096-1.125-2.164-1.125-3.202zM113.649 30.986v-3.635c1.558 0 2.697-0.62 3.418-1.861 0.26-0.462 0.389-0.923 0.389-1.385v-16.702h3.678v17.135c0 1.356-0.62 2.697-1.861 4.024-1.5 1.587-3.375 2.394-5.625 2.423zM123.644 24.625l3.418-0.649c0 1.298 0.678 2.322 2.034 3.072 0.663 0.317 1.297 0.49 1.904 0.519v3.418c-2.799 0-4.89-1.010-6.274-3.029-0.721-1.067-1.082-2.178-1.082-3.332zM123.861 13.981c0-2.625 1.196-4.572 3.591-5.841 1.153-0.606 2.308-0.909 3.461-0.909v3.375c-1.327 0-2.351 0.548-3.072 1.644-0.375 0.548-0.562 1.125-0.562 1.731 0 0.923 0.721 1.673 2.164 2.25 1.095 0.462 3.216 1.067 6.361 1.817 1.962 0.404 3.36 1.37 4.197 2.899 0.433 0.808 0.649 1.716 0.649 2.726 0 2.769-1.11 4.817-3.332 6.144-1.297 0.779-2.783 1.168-4.457 1.168v-3.418c1.327 0 2.438-0.462 3.332-1.385 0.635-0.663 0.953-1.442 0.953-2.337 0-1.154-1.14-2.077-3.419-2.769-0.576-0.173-1.499-0.418-2.769-0.736-1.355-0.317-2.336-0.577-2.942-0.779-2.193-0.865-3.52-2.178-3.982-3.937-0.114-0.519-0.172-1.067-0.172-1.644zM132.817 10.649v-3.418c2.481 0 4.486 0.923 6.015 2.769 0.951 1.183 1.428 2.423 1.428 3.721l-3.418 0.563c0-1.587-0.866-2.697-2.597-3.332-0.519-0.202-0.994-0.303-1.428-0.303zM143.202 24.365v-10.731c0.028-1.327 0.663-2.639 1.903-3.937 1.5-1.529 3.318-2.308 5.452-2.337v3.418c-1.385 0-2.466 0.606-3.246 1.817-0.316 0.519-0.475 0.995-0.475 1.428v2.942h9.692v-2.942c0-1.298-0.663-2.25-1.991-2.856-0.606-0.288-1.226-0.433-1.86-0.433v-3.375c1.99 0 3.764 0.707 5.322 2.12 1.298 1.24 1.962 2.611 1.99 4.111v6.88h-13.153v3.894c0 0.808 0.462 1.558 1.385 2.25 0.75 0.519 1.543 0.779 2.379 0.779v3.375c-2.625 0-4.687-1.067-6.187-3.202-0.807-1.125-1.211-2.192-1.211-3.202zM152.678 30.769v-3.418c1.73 0 3.029-0.75 3.894-2.25 0.172-0.317 0.303-0.62 0.389-0.909l3.072 1.125c-0.519 1.99-1.701 3.49-3.547 4.5-1.183 0.635-2.453 0.952-3.808 0.952z"></path>
</symbol>
<symbol id="map" viewBox="0 0 32 32">
<path  style="fill: var(--color1, #fff)" d="M16.104 7.013c-2.255 0-4.091 1.836-4.091 4.091s1.836 4.091 4.091 4.091c2.255 0 4.091-1.836 4.091-4.091s-1.836-4.091-4.091-4.091zM16.104 14.026c-1.611 0-2.922-1.311-2.922-2.922s1.311-2.922 2.922-2.922c1.611 0 2.922 1.311 2.922 2.922s-1.311 2.922-2.922 2.922z"></path>
<path  style="fill: var(--color1, #fff)" d="M23.926 3.283c-2.117-2.117-4.931-3.283-7.925-3.283s-5.808 1.166-7.924 3.283c-3.917 3.917-4.404 11.286-1.054 15.751l8.979 12.967 8.965-12.949c3.363-4.483 2.876-11.852-1.041-15.769zM24.018 18.368l-8.017 11.578-8.030-11.596c-3.038-4.051-2.603-10.706 0.933-14.241 1.896-1.896 4.416-2.94 7.098-2.94s5.202 1.044 7.098 2.94c3.536 3.535 3.971 10.19 0.919 14.259z"></path>
</symbol>
<symbol id="mouse" viewBox="0 0 32 32">
<path  style="fill: var(--color2, #d4c17f)" d="M15.975 0c-5.19 0-9.413 4.222-9.413 9.413v13.175c0 5.19 4.222 9.413 9.413 9.413s9.413-4.222 9.413-9.413v-13.175c0-5.19-4.222-9.413-9.413-9.413zM23.468 22.587c0 4.131-3.361 7.493-7.493 7.493s-7.493-3.361-7.493-7.493v-13.175c0-4.131 3.361-7.493 7.493-7.493s7.493 3.361 7.493 7.493v13.175z"></path>
<path  style="fill: var(--color2, #d4c17f)" d="M15.975 6.366c-0.53 0-0.96 0.43-0.96 0.96v4.418c0 0.53 0.43 0.96 0.96 0.96s0.96-0.43 0.96-0.96v-4.418c0-0.53-0.43-0.96-0.96-0.96z"></path>
</symbol>
<symbol id="park" viewBox="0 0 32 32">
<path  style="fill: var(--color2, #d4c17f)" d="M29.333 18.133c0.295 0 0.533-0.239 0.533-0.533v-2.133c0-0.294-0.238-0.533-0.533-0.533h-2.667v-0.533c0-0.294-0.238-0.533-0.533-0.533s-0.533 0.239-0.533 0.533v0.533h-14.933v-0.533c0-0.294-0.239-0.533-0.533-0.533s-0.533 0.239-0.533 0.533v0.533h-2.667c-0.294 0-0.533 0.239-0.533 0.533v2.133c0 0.294 0.239 0.533 0.533 0.533h22.4zM7.467 17.067v-1.067h21.333v1.067h-21.333z"></path>
<path  style="fill: var(--color2, #d4c17f)" d="M19.2 11.733c-0.862 0-1.42 0.655-1.481 0.731-0.185 0.227-0.15 0.558 0.075 0.745s0.561 0.155 0.75-0.068c0.002-0.004 0.291-0.34 0.655-0.34s0.653 0.337 0.653 0.337c0.106 0.13 0.259 0.197 0.414 0.197 0.118 0 0.237-0.039 0.336-0.119 0.229-0.186 0.263-0.522 0.077-0.75-0.061-0.075-0.618-0.731-1.48-0.731z"></path>
<path  style="fill: var(--color2, #d4c17f)" d="M29.333 22.4c0.295 0 0.533-0.239 0.533-0.533v-2.133c0-0.294-0.238-0.533-0.533-0.533h-2.667v-0.533c0-0.294-0.238-0.533-0.533-0.533s-0.533 0.239-0.533 0.533v0.533h-14.933v-0.533c0-0.294-0.239-0.533-0.533-0.533s-0.533 0.239-0.533 0.533v0.533h-2.667c-0.294 0-0.533 0.239-0.533 0.533v2.133c0 0.294 0.239 0.533 0.533 0.533h22.4zM7.467 21.333v-1.067h21.333v1.067h-21.333z"></path>
<path  style="fill: var(--color2, #d4c17f)" d="M21.986 10.469c0.106 0.13 0.259 0.197 0.414 0.197 0.118 0 0.237-0.039 0.336-0.119 0.229-0.186 0.263-0.522 0.077-0.75-0.061-0.075-0.618-0.731-1.481-0.731s-1.42 0.655-1.481 0.731c-0.185 0.227-0.15 0.558 0.075 0.745 0.226 0.188 0.561 0.155 0.749-0.068 0.003-0.004 0.292-0.34 0.656-0.34s0.653 0.336 0.653 0.336z"></path>
<path  style="fill: var(--color2, #d4c17f)" d="M0.536 6.987c0.027 0.273 0.257 0.48 0.531 0.48h3.2c0.274 0 0.503-0.207 0.531-0.48l0.533-5.333c0.015-0.15-0.034-0.299-0.135-0.411s-0.244-0.175-0.395-0.175h-1.6v-0.533c0-0.294-0.239-0.533-0.533-0.533s-0.533 0.239-0.533 0.533v0.533h-1.6c-0.151 0-0.294 0.064-0.395 0.175s-0.15 0.261-0.135 0.411l0.533 5.333zM4.211 2.133l-0.427 4.267h-2.235l-0.427-4.267h3.088z"></path>
<path  style="fill: var(--color2, #d4c17f)" d="M14.933 12.267c0 0.596 0.244 1.151 0.686 1.561 0.102 0.095 0.233 0.142 0.363 0.142 0.143 0 0.286-0.058 0.391-0.171 0.2-0.216 0.188-0.554-0.028-0.754-0.223-0.206-0.345-0.483-0.345-0.779 0-0.442 0.281-0.842 0.7-0.996 0.174-0.064 0.302-0.214 0.338-0.396s-0.025-0.37-0.16-0.496c-0.223-0.206-0.345-0.483-0.345-0.779 0-0.555 0.437-1.019 0.994-1.057 0.205-0.014 0.383-0.143 0.459-0.334s0.036-0.407-0.102-0.558c-0.183-0.2-0.284-0.455-0.284-0.717 0-0.555 0.437-1.019 0.994-1.057 0.205-0.014 0.383-0.143 0.459-0.334s0.036-0.407-0.102-0.558c-0.183-0.2-0.284-0.455-0.284-0.717 0-0.477 0.325-0.898 0.789-1.023 0.148-0.040 0.27-0.141 0.338-0.277s0.075-0.295 0.018-0.436c-0.052-0.131-0.078-0.264-0.078-0.397 0-0.588 0.478-1.067 1.067-1.067s1.067 0.478 1.067 1.067c0 0.133-0.027 0.266-0.078 0.397-0.057 0.141-0.051 0.3 0.018 0.436s0.19 0.237 0.338 0.277c0.465 0.126 0.789 0.547 0.789 1.023 0 0.262-0.101 0.517-0.284 0.717-0.139 0.151-0.178 0.368-0.102 0.558s0.254 0.32 0.459 0.334c0.557 0.038 0.994 0.502 0.994 1.057 0 0.262-0.101 0.517-0.284 0.717-0.139 0.151-0.178 0.368-0.102 0.558s0.254 0.32 0.459 0.334c0.557 0.038 0.994 0.502 0.994 1.057 0 0.296-0.122 0.573-0.345 0.779-0.135 0.126-0.197 0.314-0.16 0.496s0.164 0.332 0.339 0.396c0.419 0.154 0.7 0.555 0.7 0.996 0 0.294 0.238 0.533 0.533 0.533s0.533-0.239 0.533-0.533c0-0.65-0.301-1.254-0.791-1.652 0.169-0.308 0.258-0.654 0.258-1.015 0-0.834-0.491-1.567-1.206-1.914 0.092-0.239 0.14-0.494 0.14-0.753 0-0.834-0.491-1.567-1.206-1.914 0.092-0.239 0.14-0.494 0.14-0.753 0-0.778-0.428-1.48-1.086-1.852 0.013-0.093 0.019-0.187 0.019-0.282-0-1.176-0.957-2.133-2.134-2.133s-2.133 0.957-2.133 2.133c0 0.094 0.006 0.188 0.019 0.282-0.658 0.372-1.086 1.074-1.086 1.852 0 0.259 0.048 0.514 0.14 0.753-0.716 0.347-1.206 1.079-1.206 1.914 0 0.259 0.048 0.514 0.14 0.753-0.716 0.347-1.206 1.079-1.206 1.914 0 0.361 0.090 0.707 0.258 1.015-0.49 0.398-0.792 1.002-0.792 1.652z"></path>
<path  style="fill: var(--color2, #d4c17f)" d="M20.063 7.425c0.271 0.112 0.583-0.017 0.697-0.288 0.010-0.026 0.025-0.054 0.040-0.082 0.015 0.027 0.029 0.054 0.039 0.079 0.084 0.207 0.284 0.333 0.494 0.333 0.067 0 0.135-0.013 0.201-0.040 0.273-0.11 0.405-0.422 0.294-0.694-0.059-0.145-0.385-0.866-1.028-0.866s-0.969 0.722-1.028 0.866c-0.11 0.271 0.020 0.58 0.291 0.692z"></path>
<path  style="fill: var(--color2, #d4c17f)" d="M31.467 30.933h-8.533c-0.295 0-0.533 0.239-0.533 0.533s0.238 0.533 0.533 0.533h8.533c0.295 0 0.533-0.239 0.533-0.533s-0.238-0.533-0.533-0.533z"></path>
<path  style="fill: var(--color2, #d4c17f)" d="M31.467 23.467h-4.8v-0.533c0-0.294-0.238-0.533-0.533-0.533s-0.533 0.239-0.533 0.533v0.533h-14.933v-0.533c0-0.294-0.239-0.533-0.533-0.533s-0.533 0.239-0.533 0.533v0.533h-4.8c-0.294 0-0.533 0.239-0.533 0.533v2.133c0 0.294 0.239 0.533 0.533 0.533h1.6v2.667c0 0.294 0.239 0.533 0.533 0.533s0.533-0.239 0.533-0.533v-2.667h21.333v2.667c0 0.294 0.238 0.533 0.533 0.533s0.533-0.239 0.533-0.533v-2.667h1.6c0.295 0 0.533-0.239 0.533-0.533v-2.133c0-0.294-0.238-0.533-0.533-0.533zM30.933 25.6h-25.6v-1.067h25.6v1.067z"></path>
<path  style="fill: var(--color2, #d4c17f)" d="M8 30.933h-4.8v-21.867c0-0.294-0.239-0.533-0.533-0.533s-0.533 0.239-0.533 0.533v21.867h-1.6c-0.294 0-0.533 0.239-0.533 0.533s0.239 0.533 0.533 0.533h7.467c0.294 0 0.533-0.239 0.533-0.533s-0.239-0.533-0.533-0.533z"></path>
<path  style="fill: var(--color2, #d4c17f)" d="M20.8 30.933h-1.067c-0.295 0-0.533 0.239-0.533 0.533s0.238 0.533 0.533 0.533h1.067c0.295 0 0.533-0.239 0.533-0.533s-0.238-0.533-0.533-0.533z"></path>
<path  style="fill: var(--color2, #d4c17f)" d="M16.533 30.933h-5.333c-0.294 0-0.533 0.239-0.533 0.533s0.239 0.533 0.533 0.533h5.333c0.295 0 0.533-0.239 0.533-0.533s-0.238-0.533-0.533-0.533z"></path>
</symbol>
<symbol id="phone" viewBox="0 0 32 32">
<path  style="fill: var(--color1, #fff)" d="M31.979 26.337c-0.102-0.769-0.546-1.432-1.218-1.819l-7.895-4.545c-0.967-0.557-2.194-0.395-2.983 0.395l-1.555 1.555c-0.414 0.414-1.069 0.451-1.522 0.085-1.226-0.986-2.433-2.072-3.587-3.227s-2.24-2.362-3.227-3.587c-0.365-0.454-0.329-1.109 0.085-1.523l1.555-1.555c0.789-0.789 0.951-2.016 0.395-2.983l-4.545-7.894c-0.387-0.672-1.050-1.116-1.819-1.218s-1.525 0.155-2.073 0.703l-2.343 2.343c-1.635 1.635-1.662 4.627-0.074 8.423 1.527 3.65 4.375 7.669 8.022 11.315s7.665 6.495 11.315 8.022c1.869 0.782 3.542 1.172 4.955 1.172 1.457 0 2.638-0.416 3.468-1.246l2.343-2.343c0.548-0.548 0.805-1.304 0.703-2.073zM22.35 20.871l7.895 4.545c0.39 0.225 0.648 0.61 0.707 1.056 0.050 0.375-0.048 0.744-0.268 1.041l-10.492-5.988 0.426-0.426c0.458-0.458 1.171-0.553 1.732-0.229zM5.527 1.049c0.447 0.059 0.832 0.317 1.056 0.707l4.545 7.895c0.323 0.562 0.229 1.274-0.229 1.732l-0.391 0.391-6.021-10.457c0.246-0.182 0.54-0.281 0.847-0.281 0.064 0 0.128 0.004 0.192 0.013zM28.2 30.020c-1.299 1.299-3.956 1.245-7.29-0.149-3.529-1.476-7.429-4.245-10.982-7.798s-6.323-7.453-7.798-10.982c-1.394-3.334-1.449-5.991-0.149-7.29l1.739-1.739 6.030 10.473-0.404 0.404c-0.789 0.789-0.858 2.038-0.16 2.905 1.010 1.255 2.12 2.49 3.301 3.67s2.416 2.291 3.671 3.301c0.867 0.698 2.116 0.629 2.906-0.16l0.369-0.369 10.506 5.996-1.737 1.738z"></path>
</symbol>
<symbol id="play" viewBox="0 0 32 32">
<path style="fill: var(--color2, #d4c17f)" d="M16.137 0c-8.836 0-16 7.163-16 16s7.164 16 16 16c8.836 0 16-7.163 16-16s-7.164-16-16-16zM21.668 16.848l-8 5c-0.162 0.101-0.346 0.152-0.53 0.152-0.167 0-0.334-0.041-0.485-0.125-0.318-0.176-0.515-0.511-0.515-0.875v-10c0-0.364 0.197-0.698 0.515-0.874 0.318-0.177 0.707-0.166 1.015 0.026l8 5c0.292 0.183 0.47 0.503 0.47 0.848s-0.178 0.665-0.47 0.848z"></path>
</symbol>
<symbol id="twitter" viewBox="0 0 26 28">
<path d="M25.312 6.375c-0.688 1-1.547 1.891-2.531 2.609 0.016 0.219 0.016 0.438 0.016 0.656 0 6.672-5.078 14.359-14.359 14.359-2.859 0-5.516-0.828-7.75-2.266 0.406 0.047 0.797 0.063 1.219 0.063 2.359 0 4.531-0.797 6.266-2.156-2.219-0.047-4.078-1.5-4.719-3.5 0.313 0.047 0.625 0.078 0.953 0.078 0.453 0 0.906-0.063 1.328-0.172-2.312-0.469-4.047-2.5-4.047-4.953v-0.063c0.672 0.375 1.453 0.609 2.281 0.641-1.359-0.906-2.25-2.453-2.25-4.203 0-0.938 0.25-1.797 0.688-2.547 2.484 3.062 6.219 5.063 10.406 5.281-0.078-0.375-0.125-0.766-0.125-1.156 0-2.781 2.25-5.047 5.047-5.047 1.453 0 2.766 0.609 3.687 1.594 1.141-0.219 2.234-0.641 3.203-1.219-0.375 1.172-1.172 2.156-2.219 2.781 1.016-0.109 2-0.391 2.906-0.781z"></path>
</symbol>
</defs>
</svg>
